<svg viewBox="0 0 160 160" xmlns="http://www.w3.org/2000/svg">
  <defs>
    <linearGradient id="globeGradient" x1="0%" y1="0%" x2="100%" y2="100%">
      <stop offset="0%" style="stop-color:#E91E63;stop-opacity:1" />
      <stop offset="100%" style="stop-color:#C2185B;stop-opacity:1" />
    </linearGradient>
  </defs>
  
  <g id="people-globe-icon" transform="translate(0, 30)">
    <circle cx="80" cy="50" r="30" fill="url(#globeGradient)" />
    
    <ellipse cx="75" cy="45" rx="12" ry="15" fill="#fff" opacity="0.9" />
    <ellipse cx="85" cy="45" rx="12" ry="15" fill="#fff" opacity="0.9" />
    
    <path d="M 60 35 Q 50 20 45 5" stroke="#FFC107" stroke-width="8" fill="none" stroke-linecap="round" />
    <circle cx="45" cy="0" r="8" fill="#FFC107" />
    
    <path d="M 100 35 Q 110 20 115 5" stroke="#03A9F4" stroke-width="8" fill="none" stroke-linecap="round" />
    <circle cx="115" cy="0" r="8" fill="#03A9F4" />
    
    <path d="M 55 60 Q 40 75 30 90" stroke="#E91E63" stroke-width="8" fill="none" stroke-linecap="round" />
    <circle cx="30" cy="95" r="8" fill="#E91E63" />
    
    <path d="M 105 60 Q 120 75 130 90" stroke="#8BC34A" stroke-width="8" fill="none" stroke-linecap="round" />
    <circle cx="130" cy="95" r="8" fill="#8BC34A" />
    
    <path d="M 50 45 Q 35 50 20 50" stroke="#E91E63" stroke-width="8" fill="none" stroke-linecap="round" />
    <circle cx="15" cy="50" r="8" fill="#E91E63" />
    
    <path d="M 110 45 Q 125 50 140 50" stroke="#03A9F4" stroke-width="8" fill="none" stroke-linecap="round" />
    <circle cx="145" cy="50" r="8" fill="#03A9F4" />
  </g>
</svg>
