<svg viewBox="0 0 600 200" xmlns="http://www.w3.org/2000/svg">
  <defs>
    <linearGradient id="globeGradient" x1="0%" y1="0%" x2="100%" y2="100%">
      <stop offset="0%" style="stop-color:#E91E63;stop-opacity:1" />
      <stop offset="100%" style="stop-color:#C2185B;stop-opacity:1" />
    </linearGradient>
    <linearGradient id="textGradient" x1="0%" y1="0%" x2="100%" y2="0%">
      <stop offset="0%" style="stop-color:#03A9F4;stop-opacity:1" />
      <stop offset="100%" style="stop-color:#0288D1;stop-opacity:1" />
    </linearGradient>
  </defs>
  
  <g id="people-globe">
    <circle cx="80" cy="100" r="30" fill="url(#globeGradient)" />
    
    <ellipse cx="75" cy="95" rx="12" ry="15" fill="#fff" opacity="0.9" />
    <ellipse cx="85" cy="95" rx="12" ry="15" fill="#fff" opacity="0.9" />
    
    <path d="M 60 85 Q 50 70 45 55" stroke="#FFC107" stroke-width="8" fill="none" stroke-linecap="round" />
    <circle cx="45" cy="50" r="8" fill="#FFC107" />
    
    <path d="M 100 85 Q 110 70 115 55" stroke="#03A9F4" stroke-width="8" fill="none" stroke-linecap="round" />
    <circle cx="115" cy="50" r="8" fill="#03A9F4" />
    
    <path d="M 55 110 Q 40 125 30 140" stroke="#E91E63" stroke-width="8" fill="none" stroke-linecap="round" />
    <circle cx="30" cy="145" r="8" fill="#E91E63" />
    
    <path d="M 105 110 Q 120 125 130 140" stroke="#8BC34A" stroke-width="8" fill="none" stroke-linecap="round" />
    <circle cx="130" cy="145" r="8" fill="#8BC34A" />
    
    <path d="M 50 95 Q 35 100 20 100" stroke="#E91E63" stroke-width="8" fill="none" stroke-linecap="round" />
    <circle cx="15" cy="100" r="8" fill="#E91E63" />
    
    <path d="M 110 95 Q 125 100 140 100" stroke="#03A9F4" stroke-width="8" fill="none" stroke-linecap="round" />
    <circle cx="145" cy="100" r="8" fill="#03A9F4" />
  </g>

  <g id="xalima-text">
    <text
      x="170"
      y="120"
      font-family="'Plus Jakarta Sans', sans-serif"
      font-weight="700"
      font-size="72"
      fill="url(#textGradient)"
      stroke="#E91E63"
      stroke-width="3"
      paint-order="stroke"
    >
      XALIMA
    </text>
  </g>

  <g id="tagline">
    <text
      x="170"
      y="155"
      font-family="'Crimson Pro', serif"
      font-weight="600"
      font-size="24"
      fill="#E91E63"
      letter-spacing="1"
    >
      L'ÉDUCATION POUR TOUS
    </text>
  </g>
</svg>
